<svg xmlns="http://www.w3.org/2000/svg" width="1150" height="1150" fill="none"><g clip-path="url(#a)"><g clip-path="url(#b)"><circle cx="575" cy="575" r="575" fill="#1E3A8A"/><circle cx="575" cy="575" r="500" fill="url(#c)" transform="rotate(-45 575 575)"/><path fill="#fff" d="M335.656 865.694c-18.582 0-35.007-4.526-49.276-13.576-13.937-9.051-24.555-21.805-31.855-38.261-7.3-16.045-10.453-35.38-9.457-58.007l4.977-93.8c.996-16.868-1.825-29.621-8.461-38.26-6.305-8.64-17.089-12.96-32.353-12.96H150v-70.966h59.231c15.264 0 26.048-4.32 32.353-12.96 6.636-8.639 9.457-21.187 8.461-37.643l-4.977-96.885c-.996-22.216 2.157-41.346 9.457-57.391 7.3-16.044 17.918-28.386 31.855-37.026C300.649 289.32 317.074 285 335.656 285H370v70.967h-25.385c-11.945 0-21.402 3.497-28.371 10.491-6.636 6.993-9.623 18.101-8.959 33.323l4.977 96.268c1.328 24.273-4.479 43.815-17.42 58.625-12.942 14.81-31.026 22.216-54.254 22.216v-4.32c22.896 0 40.815 7.611 53.756 22.833 13.273 14.81 19.246 34.558 17.918 59.242l-4.977 96.268c-.332 13.576 2.821 24.272 9.457 32.089 6.968 7.405 16.26 11.108 27.873 11.108H370v71.584h-34.344ZM780 865.694V794.11h25.385c11.613 0 20.905-3.703 27.873-11.108 6.968-7.817 10.121-18.513 9.457-32.089l-4.977-96.268c-1.328-24.684 4.479-44.432 17.42-59.242 13.273-15.222 31.358-22.833 54.254-22.833v4.32c-22.896 0-40.981-7.406-54.254-22.216-12.941-14.811-18.748-34.352-17.42-58.625l4.977-96.268c.664-15.222-2.489-26.33-9.457-33.323-6.637-6.994-15.928-10.491-27.873-10.491H780V285h34.344c18.582 0 34.842 4.32 48.778 12.959 14.269 8.64 25.053 20.982 32.353 37.026 7.3 16.045 10.453 35.175 9.457 57.391l-4.977 96.885c-.996 16.456 1.825 29.004 8.461 37.643 6.637 8.64 17.421 12.96 32.353 12.96H1000v70.966h-59.231c-14.932 0-25.716 4.32-32.353 12.96-6.636 8.639-9.457 21.392-8.461 38.26l4.977 93.8c.996 22.627-2.157 41.962-9.457 58.007-7.3 16.456-18.084 29.21-32.353 38.261-13.936 9.05-30.196 13.576-48.778 13.576H780ZM465 515h220v120H465z"/><path fill="#fff" fill-opacity=".6" d="M465 285h220v120H465zM465 746h220v120H465z"/></g></g><defs><clipPath id="a"><path fill="#fff" d="M0 0h1150v1150H0z"/></clipPath><clipPath id="b"><path fill="#fff" d="M-25-25h1200v1200H-25z"/></clipPath><linearGradient id="c" x1="575" x2="575" y1="75" y2="1075" gradientUnits="userSpaceOnUse"><stop stop-color="#60A5FA"/><stop offset="1" stop-color="#2563EB"/></linearGradient></defs></svg>