<svg xmlns="http://www.w3.org/2000/svg" width="1000" height="1000" fill="none"><g clip-path="url(#a)"><circle cx="500.107" cy="500.106" r="500" fill="url(#b)" transform="rotate(-45 500.107 500.106)"/><path fill="#fff" d="M260.763 790.8c-18.582 0-35.008-4.525-49.276-13.576-13.937-9.051-24.555-21.804-31.855-38.26-7.3-16.045-10.453-35.381-9.457-58.008l4.977-93.8c.996-16.867-1.825-29.621-8.462-38.26-6.304-8.639-17.088-12.959-32.352-12.959H75.107V464.97h59.231c15.264 0 26.048-4.32 32.352-12.959 6.637-8.64 9.458-21.187 8.462-37.643l-4.977-96.886c-.996-22.215 2.157-41.346 9.457-57.39 7.3-16.045 17.918-28.387 31.855-37.026 14.268-8.64 30.694-12.96 49.276-12.96h34.344v70.967h-25.385c-11.946 0-21.403 3.497-28.371 10.491-6.636 6.994-9.623 18.102-8.959 33.324l4.977 96.268c1.328 24.272-4.479 43.814-17.421 58.624-12.941 14.811-31.025 22.216-54.253 22.216v-4.32c22.896 0 40.814 7.611 53.756 22.833 13.273 14.811 19.246 34.558 17.918 59.242l-4.977 96.268c-.332 13.576 2.82 24.273 9.457 32.09 6.968 7.405 16.259 11.107 27.873 11.107h25.385V790.8h-34.344ZM705.107 790.8v-71.584h25.384c11.614 0 20.905-3.702 27.874-11.107 6.968-7.817 10.12-18.514 9.457-32.09l-4.978-96.268c-1.327-24.684 4.48-44.431 17.421-59.242 13.273-15.222 31.358-22.833 54.254-22.833v4.32c-22.896 0-40.981-7.405-54.254-22.216-12.941-14.81-18.748-34.352-17.421-58.624l4.978-96.268c.663-15.222-2.489-26.33-9.457-33.324-6.637-6.994-15.928-10.491-27.874-10.491h-25.384v-70.967h34.344c18.582 0 34.841 4.32 48.778 12.96 14.268 8.639 25.053 20.981 32.353 37.026 7.3 16.044 10.452 35.175 9.457 57.39l-4.977 96.886c-.996 16.456 1.825 29.003 8.461 37.643 6.637 8.639 17.421 12.959 32.353 12.959h59.231v70.967h-59.231c-14.932 0-25.716 4.32-32.353 12.959-6.636 8.639-9.457 21.393-8.461 38.26l4.977 93.8c.995 22.627-2.157 41.963-9.457 58.008-7.3 16.456-18.085 29.209-32.353 38.26-13.937 9.051-30.196 13.576-48.778 13.576h-34.344ZM390.107 440.106h220v120h-220z"/><path fill="#fff" fill-opacity=".6" d="M390.107 210.106h220v120h-220zM390.107 671.106h220v120h-220z"/></g><defs><linearGradient id="b" x1="500.107" x2="500.107" y1=".106" y2="1000.11" gradientUnits="userSpaceOnUse"><stop stop-color="#60A5FA"/><stop offset="1" stop-color="#2563EB"/></linearGradient><clipPath id="a"><path fill="#fff" d="M0 0h1000v1000H0z"/></clipPath></defs></svg>