<svg xmlns="http://www.w3.org/2000/svg" width="1150" height="1150" fill="#fff" background="#fff"><g clip-path="url(#a)"><circle cx="575" cy="575" r="575" fill="url(#b)"/><path fill="#fff" d="M360.8 925c-22.4 0-42.2-5.455-59.4-16.366-16.8-10.91-29.6-26.284-38.4-46.121-8.8-19.341-12.6-42.649-11.4-69.925l6-113.071c1.2-20.333-2.2-35.707-10.2-46.122-7.6-10.414-20.6-15.621-39-15.621H137v-85.548h71.4c18.4 0 31.4-5.207 39-15.621 8-10.415 11.4-25.54 10.2-45.378l-6-116.79c-1.2-26.78 2.6-49.841 11.4-69.182s21.6-34.219 38.4-44.633c17.2-10.415 37-15.622 59.4-15.622h41.4v85.547h-30.6c-14.4 0-25.8 4.216-34.2 12.646-8 8.431-11.6 21.821-10.8 40.17l6 116.047c1.6 29.26-5.4 52.816-21 70.67-15.6 17.853-37.4 26.78-65.4 26.78v-5.207c27.6 0 49.2 9.174 64.8 27.523 16 17.854 23.2 41.658 21.6 71.414l-6 116.047c-.4 16.365 3.4 29.259 11.4 38.682 8.4 8.927 19.6 13.39 33.6 13.39h30.6V925h-41.4ZM747 925v-86.291h30.6c14 0 25.2-4.463 33.6-13.39 8.4-9.423 12.2-22.317 11.4-38.682l-6-116.047c-1.6-29.756 5.4-53.56 21-71.414 16-18.349 37.8-27.523 65.4-27.523v5.207c-27.6 0-49.4-8.927-65.4-26.78-15.6-17.854-22.6-41.41-21-70.67l6-116.047c.8-18.349-3-31.739-11.4-40.17-8-8.43-19.2-12.646-33.6-12.646H747V225h41.4c22.4 0 42 5.207 58.8 15.622 17.2 10.414 30.2 25.292 39 44.633s12.6 42.402 11.4 69.182l-6 116.79c-1.2 19.838 2.2 34.963 10.2 45.378 8 10.414 21 15.621 39 15.621h71.4v85.548h-71.4c-18 0-31 5.207-39 15.621-8 10.415-11.4 25.789-10.2 46.122l6 113.071c1.2 27.276-2.6 50.584-11.4 69.925-8.8 19.837-21.8 35.211-39 46.121C830.4 919.545 810.8 925 788.4 925H747ZM465 515h220v120H465z"/><path fill="#fff" fill-opacity=".6" d="M465 290h220v120H465zM465 740h220v120H465z"/></g><defs><linearGradient id="b" x1="575" x2="575" y1="0" y2="1150" gradientUnits="userSpaceOnUse"><stop stop-color="#60A5FA"/><stop offset="1" stop-color="#2563EB"/></linearGradient><clipPath id="a"><path fill="#fff" d="M0 0h1150v1150H0z"/></clipPath></defs></svg>