<svg xmlns="http://www.w3.org/2000/svg" width="1150" height="1150" fill="none"><g clip-path="url(#a)"><g clip-path="url(#b)"><circle cx="575" cy="575" r="575" fill="#1E3A8A"/><circle cx="575" cy="575" r="500" fill="url(#c)" transform="rotate(-45 575 575)"/><path fill="#fff" d="M238 692.75c-9.333 0-17.583-1.833-24.75-5.5-7-3.667-12.333-8.833-16-15.5-3.667-6.5-5.25-14.333-4.75-23.5l2.5-38c.5-6.833-.917-12-4.25-15.5-3.167-3.5-8.583-5.25-16.25-5.25h-29.75v-28.75h29.75c7.667 0 13.083-1.75 16.25-5.25 3.333-3.5 4.75-8.583 4.25-15.25L192.5 501c-.5-9 1.083-16.75 4.75-23.25s9-11.5 16-15c7.167-3.5 15.417-5.25 24.75-5.25h17.25v28.75H242.5c-6 0-10.75 1.417-14.25 4.25-3.333 2.833-4.833 7.333-4.5 13.5l2.5 39c.667 9.833-2.25 17.75-8.75 23.75s-15.583 9-27.25 9V574c11.5 0 20.5 3.083 27 9.25 6.667 6 9.667 14 9 24l-2.5 39c-.167 5.5 1.417 9.833 4.75 13 3.5 3 8.167 4.5 14 4.5h12.75v29H238ZM894.75 692.75v-29h12.75c5.833 0 10.5-1.5 14-4.5 3.5-3.167 5.083-7.5 4.75-13l-2.5-39c-.667-10 2.25-18 8.75-24 6.667-6.167 15.75-9.25 27.25-9.25v1.75c-11.5 0-20.583-3-27.25-9-6.5-6-9.417-13.917-8.75-23.75l2.5-39c.333-6.167-1.25-10.667-4.75-13.5-3.333-2.833-8-4.25-14-4.25h-12.75V457.5H912c9.333 0 17.5 1.75 24.5 5.25 7.167 3.5 12.583 8.5 16.25 15S958 492 957.5 501l-2.5 39.25c-.5 6.667.917 11.75 4.25 15.25s8.75 5.25 16.25 5.25h29.75v28.75H975.5c-7.5 0-12.917 1.75-16.25 5.25s-4.75 8.667-4.25 15.5l2.5 38c.5 9.167-1.083 17-4.75 23.5-3.667 6.667-9.083 11.833-16.25 15.5-7 3.667-15.167 5.5-24.5 5.5h-17.25ZM325 515h500v120H325z"/><path fill="#fff" fill-opacity=".6" d="M275 270h600v120H275zM275 760h600v120H275z"/></g></g><defs><clipPath id="a"><path fill="#fff" d="M0 0h1150v1150H0z"/></clipPath><clipPath id="b"><path fill="#fff" d="M-25-25h1200v1200H-25z"/></clipPath><linearGradient id="c" x1="575" x2="575" y1="75" y2="1075" gradientUnits="userSpaceOnUse"><stop stop-color="#60A5FA"/><stop offset="1" stop-color="#2563EB"/></linearGradient></defs></svg>