<svg xmlns="http://www.w3.org/2000/svg" width="1200" height="1200" fill="none"><g clip-path="url(#a)"><g clip-path="url(#b)"><circle cx="600" cy="600" r="575" fill="#1E3A8A"/><circle cx="600" cy="600" r="500" fill="url(#c)" transform="rotate(-45 600 600)"/><path fill="#fff" d="M360.656 890.694c-18.582 0-35.007-4.526-49.276-13.576-13.937-9.051-24.555-21.805-31.855-38.261-7.3-16.045-10.453-35.38-9.457-58.007l4.977-93.8c.996-16.868-1.825-29.621-8.461-38.26-6.305-8.64-17.089-12.96-32.353-12.96H175v-70.966h59.231c15.264 0 26.048-4.32 32.353-12.96 6.636-8.639 9.457-21.187 8.461-37.643l-4.977-96.885c-.996-22.216 2.157-41.346 9.457-57.391 7.3-16.044 17.918-28.386 31.855-37.026C325.649 314.32 342.074 310 360.656 310H395v70.967h-25.385c-11.945 0-21.402 3.497-28.371 10.491-6.636 6.993-9.623 18.101-8.959 33.323l4.977 96.268c1.328 24.273-4.479 43.815-17.42 58.625-12.942 14.81-31.026 22.216-54.254 22.216v-4.32c22.896 0 40.815 7.611 53.756 22.833 13.273 14.81 19.246 34.558 17.918 59.242l-4.977 96.268c-.332 13.576 2.821 24.272 9.457 32.089 6.968 7.405 16.26 11.108 27.873 11.108H395v71.584h-34.344ZM805 890.694V819.11h25.385c11.613 0 20.905-3.703 27.873-11.108 6.968-7.817 10.121-18.513 9.457-32.089l-4.977-96.268c-1.328-24.684 4.479-44.432 17.42-59.242 13.273-15.222 31.358-22.833 54.254-22.833v4.32c-22.896 0-40.981-7.406-54.254-22.216-12.941-14.811-18.748-34.352-17.42-58.625l4.977-96.268c.664-15.222-2.489-26.33-9.457-33.323-6.637-6.994-15.928-10.491-27.873-10.491H805V310h34.344c18.582 0 34.842 4.32 48.778 12.959 14.269 8.64 25.053 20.982 32.353 37.026 7.3 16.045 10.453 35.175 9.457 57.391l-4.977 96.885c-.996 16.456 1.825 29.004 8.461 37.643 6.637 8.64 17.421 12.96 32.353 12.96H1025v70.966h-59.231c-14.932 0-25.716 4.32-32.353 12.96-6.636 8.639-9.457 21.392-8.461 38.26l4.977 93.8c.996 22.627-2.157 41.962-9.457 58.007-7.3 16.456-18.084 29.21-32.353 38.261-13.936 9.05-30.196 13.576-48.778 13.576H805ZM490 540h220v120H490z"/><path fill="#fff" fill-opacity=".6" d="M490 310h220v120H490zM490 771h220v120H490z"/></g></g><rect width="1199" height="1199" x=".5" y=".5" stroke="#9747FF" stroke-dasharray="10 5" rx="4.5"/><defs><clipPath id="a"><rect width="1200" height="1200" fill="#fff" rx="5"/></clipPath><clipPath id="b"><path fill="#fff" d="M0 0h1200v1200H0z"/></clipPath><linearGradient id="c" x1="600" x2="600" y1="100" y2="1100" gradientUnits="userSpaceOnUse"><stop stop-color="#60A5FA"/><stop offset="1" stop-color="#2563EB"/></linearGradient></defs></svg>