<svg xmlns="http://www.w3.org/2000/svg" width="8400" height="1600" fill="none"><g clip-path="url(#a)"><circle cx="800" cy="800" r="575" fill="#1E3A8A"/><circle cx="800" cy="800" r="500" fill="url(#b)" transform="rotate(-45 800 800)"/><path fill="#fff" d="M560.656 1090.69c-18.582 0-35.007-4.52-49.276-13.57-13.937-9.05-24.555-21.81-31.855-38.26-7.3-16.05-10.453-35.38-9.457-58.01l4.977-93.8c.996-16.868-1.825-29.621-8.461-38.26-6.305-8.64-17.089-12.96-32.353-12.96H375v-70.966h59.231c15.264 0 26.048-4.32 32.353-12.96 6.636-8.639 9.457-21.187 8.461-37.643l-4.977-96.885c-.996-22.216 2.157-41.346 9.457-57.391 7.3-16.044 17.918-28.386 31.855-37.026C525.649 514.32 542.074 510 560.656 510H595v70.967h-25.385c-11.945 0-21.402 3.497-28.371 10.491-6.636 6.993-9.623 18.101-8.959 33.323l4.977 96.268c1.328 24.273-4.479 43.815-17.42 58.625-12.942 14.81-31.026 22.216-54.254 22.216v-4.32c22.896 0 40.815 7.611 53.756 22.833 13.273 14.81 19.246 34.558 17.918 59.242l-4.977 96.268c-.332 13.576 2.821 24.277 9.457 32.087 6.968 7.41 16.26 11.11 27.873 11.11H595v71.58h-34.344ZM1005 1090.69v-71.58h25.38c11.62 0 20.91-3.7 27.88-11.11 6.97-7.81 10.12-18.511 9.45-32.087l-4.97-96.268c-1.33-24.684 4.48-44.432 17.42-59.242 13.27-15.222 31.36-22.833 54.25-22.833v4.32c-22.89 0-40.98-7.406-54.25-22.216-12.94-14.811-18.75-34.352-17.42-58.625l4.97-96.268c.67-15.222-2.48-26.33-9.45-33.323-6.64-6.994-15.93-10.491-27.88-10.491H1005V510h34.34c18.59 0 34.85 4.32 48.78 12.959 14.27 8.64 25.05 20.982 32.36 37.026 7.3 16.045 10.45 35.175 9.45 57.391l-4.98 96.885c-.99 16.456 1.83 29.004 8.47 37.643 6.63 8.64 17.42 12.96 32.35 12.96H1225v70.966h-59.23c-14.93 0-25.72 4.32-32.35 12.96-6.64 8.639-9.46 21.392-8.47 38.26l4.98 93.8c1 22.63-2.15 41.96-9.45 58.01-7.31 16.45-18.09 29.21-32.36 38.26-13.93 9.05-30.19 13.57-48.78 13.57H1005ZM690 740h220v120H690z"/><path fill="#fff" fill-opacity=".6" d="M690 510h220v120H690zM690 971h220v120H690z"/></g><path fill="#000" d="M1662 1056v-27.75h7.5c7.5 0 14.25-1 20.25-3 6.5-2 11.75-5.5 15.75-10.5s6-11.5 6-19.5V576c0-7-2-12-6-15-4-3.5-9.25-6-15.75-7.5-6-1.5-12.75-2.25-20.25-2.25h-7.5V523.5h223.5l108 392.25h-15.75l121.5-392.25h218.25v27.75h-6c-12 0-22.25 1.75-30.75 5.25-8.5 3-12.75 9.5-12.75 19.5v427.5c0 10 4.25 16.75 12.75 20.25 8.5 3 18.75 4.5 30.75 4.5h6V1056h-243.75v-27.75h6c7 0 13.75-.25 20.25-.75s12-1.25 16.5-2.25c4.5-1.5 6.75-3 6.75-4.5V534l9 1.5-157.5 521.25h-76.5L1740 535.5l9.75-1.5v479.25c0 4 2 7.25 6 9.75 4 2 9.25 3.5 15.75 4.5 6.5.5 13.5.75 21 .75h8.25V1056H1662Zm812.94-193.5c0 29 2.25 54 6.75 75 4.5 20.5 11.25 37.5 20.25 51 9 13 20 22.75 33 29.25 13.5 6 29.25 9 47.25 9 18.5 0 35-3.25 49.5-9.75 15-7 28.25-16.5 39.75-28.5s21.25-25.25 29.25-39.75l26.25 18.75c-9.5 19.5-22.25 36.5-38.25 51-15.5 14.5-34.25 25.75-56.25 33.75-21.5 7.5-46.5 11.25-75 11.25-43.5 0-82-8-115.5-24-33-16.5-58.75-39.75-77.25-69.75-18-30.5-27-66.5-27-108 0-41 8.75-76.75 26.25-107.25 18-31 42.5-55 73.5-72 31.5-17 67-25.5 106.5-25.5 31 0 58 4.5 81 13.5 23.5 9 43.25 22 59.25 39 16.5 17 29 38 37.5 63 8.5 24.5 12.75 52.75 12.75 84.75h-325.5V826.5h216.75l-17.25 6c0-27.5-1.25-50.5-3.75-69s-6.5-33-12-43.5c-5-11-11.25-18.75-18.75-23.25-7.5-5-16.5-7.5-27-7.5-11 0-21 3-30 9-8.5 6-16 15.75-22.5 29.25s-11.5 31.25-15 53.25c-3 22-4.5 49.25-4.5 81.75Zm524.9 111.75c0-10-2.25-18.25-6.75-24.75s-11.25-12-20.25-16.5c-8.5-5-18.75-9.5-30.75-13.5-12-4.5-25.5-8.75-40.5-12.75-14.5-4.5-29.5-9.5-45-15-15-5.5-29-13-42-22.5s-23.5-21.5-31.5-36c-7.5-14.5-11.25-32.75-11.25-54.75 0-26 7-47.75 21-65.25 14-18 33.5-31.75 58.5-41.25 25.5-10 55-15 88.5-15 26.5 0 49.5 2.25 69 6.75s35.5 9.5 48 15 21.25 10.25 26.25 14.25v70.5h-89.25v-81c4 .5 7.25 2 9.75 4.5 3 2 5.25 4.75 6.75 8.25 2 3 3.25 6.25 3.75 9.75.5 3 .25 5.5-.75 7.5-4.5-5-10.25-9.25-17.25-12.75-6.5-3.5-14.25-6.25-23.25-8.25-8.5-2-18.5-3-30-3-23.5 0-41 5-52.5 15-11.5 9.5-17.25 21.75-17.25 36.75 0 10.5 2.5 19.25 7.5 26.25 5 6.5 12 12.25 21 17.25 9 4.5 19.75 8.75 32.25 12.75 13 3.5 27.25 7.5 42.75 12s31 9.75 46.5 15.75c16 5.5 30.5 12.75 43.5 21.75s23.5 20.25 31.5 33.75 12 30.25 12 50.25c0 28-7.25 52-21.75 72-14 20-34.75 35.25-62.25 45.75s-61 15.75-100.5 15.75c-27.5 0-52.25-2.25-74.25-6.75-21.5-4.5-40-10-55.5-16.5-15-7-26.5-13.25-34.5-18.75v-78h93.75v93.75c-3.5-3-6.75-5.75-9.75-8.25-2.5-3-4.75-5.75-6.75-8.25-1.5-3-2.5-6-3-9s-.25-6 .75-9c6 6.5 13.5 12 22.5 16.5s18.75 7.75 29.25 9.75c11 2 22.25 3 33.75 3 17 0 31.25-2.25 42.75-6.75s20.25-11 26.25-19.5c6-9 9-19.5 9-31.5Zm369.52 0c0-10-2.25-18.25-6.75-24.75s-11.25-12-20.25-16.5c-8.5-5-18.75-9.5-30.75-13.5-12-4.5-25.5-8.75-40.5-12.75-14.5-4.5-29.5-9.5-45-15-15-5.5-29-13-42-22.5s-23.5-21.5-31.5-36c-7.5-14.5-11.25-32.75-11.25-54.75 0-26 7-47.75 21-65.25 14-18 33.5-31.75 58.5-41.25 25.5-10 55-15 88.5-15 26.5 0 49.5 2.25 69 6.75s35.5 9.5 48 15 21.25 10.25 26.25 14.25v70.5h-89.25v-81c4 .5 7.25 2 9.75 4.5 3 2 5.25 4.75 6.75 8.25 2 3 3.25 6.25 3.75 9.75.5 3 .25 5.5-.75 7.5-4.5-5-10.25-9.25-17.25-12.75-6.5-3.5-14.25-6.25-23.25-8.25-8.5-2-18.5-3-30-3-23.5 0-41 5-52.5 15-11.5 9.5-17.25 21.75-17.25 36.75 0 10.5 2.5 19.25 7.5 26.25 5 6.5 12 12.25 21 17.25 9 4.5 19.75 8.75 32.25 12.75 13 3.5 27.25 7.5 42.75 12s31 9.75 46.5 15.75c16 5.5 30.5 12.75 43.5 21.75s23.5 20.25 31.5 33.75 12 30.25 12 50.25c0 28-7.25 52-21.75 72-14 20-34.75 35.25-62.25 45.75s-61 15.75-100.5 15.75c-27.5 0-52.25-2.25-74.25-6.75-21.5-4.5-40-10-55.5-16.5-15-7-26.5-13.25-34.5-18.75v-78h93.75v93.75c-3.5-3-6.75-5.75-9.75-8.25-2.5-3-4.75-5.75-6.75-8.25-1.5-3-2.5-6-3-9s-.25-6 .75-9c6 6.5 13.5 12 22.5 16.5s18.75 7.75 29.25 9.75c11 2 22.25 3 33.75 3 17 0 31.25-2.25 42.75-6.75s20.25-11 26.25-19.5c6-9 9-19.5 9-31.5Zm389.72-153-.75 29.25c-17.5 2-33.25 4.75-47.25 8.25s-26.25 8-36.75 13.5c-10 5.5-18.25 12-24.75 19.5s-11.25 16-14.25 25.5-4.5 20.25-4.5 32.25c0 15 1.75 27.25 5.25 36.75 4 9 9.5 16 16.5 21 7.5 4.5 16 6.75 25.5 6.75 11.5 0 21.75-3 30.75-9s17-14.25 24-24.75c7.5-10.5 14-22.75 19.5-36.75l12.75 14.25c-6 21.5-15 40.25-27 56.25-11.5 15.5-26.5 27.75-45 36.75-18.5 8.5-40.5 12.75-66 12.75-25 0-46.75-4-65.25-12s-32.75-19.75-42.75-35.25c-9.5-15.5-14.25-34.5-14.25-57 0-21 5.25-39 15.75-54 11-15.5 27.25-28.5 48.75-39s48-19.25 79.5-26.25c32-7.5 68.75-13.75 110.25-18.75Zm-9.75 234.75v-70.5l-8.25.75V753c0-15-2-27-6-36-4-9.5-10.25-16.5-18.75-21s-19.5-6.75-33-6.75c-18 0-33.5 3.5-46.5 10.5-12.5 7-22 15.5-28.5 25.5 0-5.5.5-10.25 1.5-14.25 1.5-4.5 3.25-8.5 5.25-12 2.5-3.5 5.25-6.25 8.25-8.25 3-2.5 6.25-4.5 9.75-6v100.5h-99.75V705c7-5.5 17.75-12 32.25-19.5s33-14 55.5-19.5c22.5-6 48.5-9 78-9 26.5 0 50.5 2.75 72 8.25 22 5.5 40.5 13.75 55.5 24.75 15.5 10.5 27.25 24.25 35.25 41.25 8.5 16.5 12.75 36.25 12.75 59.25v216.75c0 5 1.25 9 3.75 12s6.25 5.25 11.25 6.75c5.5 1 11.5 1.75 18 2.25l5.25.75v27h-163.5Zm620.97-328.5c-18.5-3.5-35-5.25-49.5-5.25-14-.5-26.5.25-37.5 2.25-10.5 2-19.5 5.25-27 9.75l-3.75-14.25c7-12 14.5-22.5 22.5-31.5 8.5-9.5 17.5-17.25 27-23.25s19.75-10 30.75-12c11.5-2.5 24-3 37.5-1.5v75.75ZM4128.05 930c-36 0-67.5-5.25-94.5-15.75-26.5-11-47.25-26.5-62.25-46.5-14.5-20.5-21.75-44.75-21.75-72.75s7.5-52.25 22.5-72.75 35.75-36.5 62.25-48c27-11.5 58-17.25 93-17.25 35.5 0 66.75 5.75 93.75 17.25s48 27.5 63 48c15.5 20.5 23.25 44.75 23.25 72.75s-7.75 52.25-23.25 72.75c-15 20-36 35.5-63 46.5-27 10.5-58 15.75-93 15.75Zm-.75-30.75c11 0 20.5-3.25 28.5-9.75 8-7 14-18 18-33 4.5-15 6.75-35.25 6.75-60.75 0-25-2.25-45.25-6.75-60.75-4-15.5-10-26.75-18-33.75-7.5-7-17-10.5-28.5-10.5-10.5 0-19.75 3.5-27.75 10.5-7.5 7-13.5 18.25-18 33.75s-6.75 36-6.75 61.5c0 25 2.25 45 6.75 60s10.5 26 18 33c8 6.5 17.25 9.75 27.75 9.75Zm-21 338.25c-37 0-70.25-3-99.75-9-29.5-5.5-52.75-14.5-69.75-27-16.5-12.5-24.75-29-24.75-49.5 0-13 3.75-24.75 11.25-35.25 8-10 20.75-19 38.25-27 18-7.5 41.75-14.25 71.25-20.25l6 15c-10.5 4.5-19 9.75-25.5 15.75-6 6.5-10.25 13.5-12.75 21s-3.75 14.75-3.75 21.75c0 13.5 4 24.75 12 33.75s20.5 16 37.5 21c17.5 5 40.5 7.5 69 7.5h20.25c31 0 56.25-3 75.75-9 19.5-5.5 33.75-13.5 42.75-24 9.5-10 14.25-21.5 14.25-34.5s-4.5-22.75-13.5-29.25c-9-6-23.5-9-43.5-9h-204l-.75-12.75c-15-5.5-27.75-12.25-38.25-20.25s-18.25-17.25-23.25-27.75c-5-11-7.5-23.25-7.5-36.75 0-16 4-30.25 12-42.75 8-13 19-24.5 33-34.5s30.25-18.25 48.75-24.75l37.5 11.25c-11 4.5-20.5 9.25-28.5 14.25-7.5 5-13.25 10.25-17.25 15.75s-6 12-6 19.5c0 9 3.75 15.75 11.25 20.25 8 4 20.25 6 36.75 6h146.25c33 0 60.5 4 82.5 12 22.5 7.5 39.5 19 51 34.5s17.25 35 17.25 58.5c0 32-9.5 58.75-28.5 80.25s-45 37.75-78 48.75c-32.5 11-70 16.5-112.5 16.5h-36.75Zm403.02-375c0 29 2.25 54 6.75 75 4.5 20.5 11.25 37.5 20.25 51 9 13 20 22.75 33 29.25 13.5 6 29.25 9 47.25 9 18.5 0 35-3.25 49.5-9.75 15-7 28.25-16.5 39.75-28.5s21.25-25.25 29.25-39.75l26.25 18.75c-9.5 19.5-22.25 36.5-38.25 51-15.5 14.5-34.25 25.75-56.25 33.75-21.5 7.5-46.5 11.25-75 11.25-43.5 0-82-8-115.5-24-33-16.5-58.75-39.75-77.25-69.75-18-30.5-27-66.5-27-108 0-41 8.75-76.75 26.25-107.25 18-31 42.5-55 73.5-72 31.5-17 67-25.5 106.5-25.5 31 0 58 4.5 81 13.5 23.5 9 43.25 22 59.25 39 16.5 17 29 38 37.5 63 8.5 24.5 12.75 52.75 12.75 84.75h-325.5V826.5h216.75l-17.25 6c0-27.5-1.25-50.5-3.75-69s-6.5-33-12-43.5c-5-11-11.25-18.75-18.75-23.25-7.5-5-16.5-7.5-27-7.5-11 0-21 3-30 9-8.5 6-16 15.75-22.5 29.25s-11.5 31.25-15 53.25c-3 22-4.5 49.25-4.5 81.75Zm479.97-305.25v447c0 5.5 1.5 10 4.5 13.5 3 3 7 5.25 12 6.75s10.5 2.5 16.5 3 12 .75 18 .75h12.75V1056h-258v-27.75h6c12 0 22.25-1.75 30.75-5.25s12.75-10.75 12.75-21.75v-423c0-11-4.25-18.25-12.75-21.75s-18.75-5.25-30.75-5.25h-6V523.5h412.5v140.25h-30l-15-70.5c-2-9-6-16-12-21-6-5.5-14.5-9.25-25.5-11.25-10.5-2.5-23.75-3.75-39.75-3.75h-96Zm-15 214.5c26-1 49.25-2.25 69.75-3.75 21-2 40.25-4.25 57.75-6.75 17.5-3 34.5-6.25 51-9.75v71.25c-16.5-4.5-33.5-8-51-10.5-17.5-3-36.5-5.25-57-6.75-20.5-2-44-3.5-70.5-4.5v-29.25ZM5645.04 861c0 40-9 75.25-27 105.75s-43.25 54.25-75.75 71.25-71.25 25.5-116.25 25.5c-44 0-82.5-8.5-115.5-25.5s-58.5-40.75-76.5-71.25c-17.5-30.5-26.25-65.75-26.25-105.75 0-30.5 5-58 15-82.5 10.5-25 25.25-46.5 44.25-64.5 19.5-18 42.5-32 69-42 27-10 57-15 90-15 33.5 0 63.5 5 90 15 27 9.5 50 23.5 69 42 19.5 18 34.25 39.5 44.25 64.5 10.5 24.5 15.75 52 15.75 82.5Zm-296.25 0c0 40 2.75 72.75 8.25 98.25 6 25 14.75 43.25 26.25 54.75s25.75 17.25 42.75 17.25c17.5 0 32-5.75 43.5-17.25s20-29.75 25.5-54.75c6-25.5 9-58.5 9-99s-3-73.25-9-98.25c-5.5-25.5-14-44-25.5-55.5s-26-17.25-43.5-17.25c-17 0-31.25 6-42.75 18-11.5 11.5-20.25 29.75-26.25 54.75-5.5 25-8.25 58-8.25 99Zm623.72-198v112.5c-4-1.5-8.5-2.5-13.5-3-5-1-10.5-1.75-16.5-2.25-5.5-.5-11-.75-16.5-.75-10.5 0-20.5 1-30 3-9 2-18 5.25-27 9.75-8.5 4-16.25 9.25-23.25 15.75-6.5 6.5-12 14.25-16.5 23.25l-2.25-20.25c7.5-26.5 16.25-50.5 26.25-72 10.5-21.5 23.25-38.5 38.25-51 15.5-12.5 33.5-18.75 54-18.75 6.5 0 12 .5 16.5 1.5 4.5.5 8 1.25 10.5 2.25Zm-303.75 393v-26.25h.75c10.5 0 19.5-1.25 27-3.75 7.5-3 11.25-9 11.25-18V717.75c0-5.5-1.25-9.75-3.75-12.75-2-3-5.25-5.25-9.75-6.75-4.5-2-10.5-3.75-18-5.25l-7.5-1.5v-27h167.25v125.25l8.25-2.25V1023c0 1.5 2.25 2.75 6.75 3.75 4.5.5 10 1.25 16.5 2.25 6.5.5 13 .75 19.5.75h12V1056h-230.25Zm324.11 0v-26.25h.75c11 0 20-1.25 27-3.75 7.5-3 11.25-9 11.25-18V717.75c0-5.5-1-9.75-3-12.75s-5.5-5.25-10.5-6.75c-4.5-2-10.5-3.75-18-5.25l-7.5-1.5v-27h167.25v80.25l8.25 3.75V1023c0 1.5 1.5 2.75 4.5 3.75 3.5 1 7.5 1.75 12 2.25s8.5.75 12 .75h1.5V1056h-205.5Zm444 0h-200.25v-26.25h.75c4.5 0 9.25-.25 14.25-.75s9.25-1.25 12.75-2.25c4-1 6-2.25 6-3.75V774c0-14-1-25.5-3-34.5s-5.75-15.5-11.25-19.5c-5-4.5-11.75-6.75-20.25-6.75-10 0-19.75 3-29.25 9-9 6-17.25 14.75-24.75 26.25-7.5 11-14.75 24-21.75 39l-10.5-32.25c10-19.5 21.5-36.5 34.5-51 13.5-15 28.75-26.5 45.75-34.5 17.5-8.5 37-12.75 58.5-12.75 24 0 44.75 5 62.25 15 18 9.5 32 24 42 43.5 10 19 15 42.75 15 71.25v229.5c0 3.5 1.5 6.25 4.5 8.25s6.75 3.5 11.25 4.5c4.5.5 8.75.75 12.75.75h.75V1056Zm249 0h-206.25v-26.25h.75c3.5 0 7.5-.25 12-.75s8.5-1.25 12-2.25 5.25-2.25 5.25-3.75V774c0-14-1.25-25.5-3.75-34.5-2-9-5.5-15.5-10.5-19.5-5-4.5-12-6.75-21-6.75-10 0-19.5 3.25-28.5 9.75-9 6-17.5 14.5-25.5 25.5-7.5 11-14.75 24-21.75 39l-9.75-32.25c10-19.5 21.5-36.5 34.5-51 13.5-15 28.75-26.5 45.75-34.5 17-8.5 36.5-12.75 58.5-12.75 23.5 0 44 5 61.5 15 18 9.5 32 24 42 43.5 10 19 15 42.75 15 71.25V1008c0 9 3.5 15 10.5 18 7.5 2.5 16.5 3.75 27 3.75h2.25V1056Zm270.7-234.75-.75 29.25c-17.5 2-33.25 4.75-47.25 8.25s-26.25 8-36.75 13.5c-10 5.5-18.25 12-24.75 19.5s-11.25 16-14.25 25.5-4.5 20.25-4.5 32.25c0 15 1.75 27.25 5.25 36.75 4 9 9.5 16 16.5 21 7.5 4.5 16 6.75 25.5 6.75 11.5 0 21.75-3 30.75-9s17-14.25 24-24.75c7.5-10.5 14-22.75 19.5-36.75l12.75 14.25c-6 21.5-15 40.25-27 56.25-11.5 15.5-26.5 27.75-45 36.75-18.5 8.5-40.5 12.75-66 12.75-25 0-46.75-4-65.25-12s-32.75-19.75-42.75-35.25c-9.5-15.5-14.25-34.5-14.25-57 0-21 5.25-39 15.75-54 11-15.5 27.25-28.5 48.75-39s48-19.25 79.5-26.25c32-7.5 68.75-13.75 110.25-18.75Zm-9.75 234.75v-70.5l-8.25.75V753c0-15-2-27-6-36-4-9.5-10.25-16.5-18.75-21s-19.5-6.75-33-6.75c-18 0-33.5 3.5-46.5 10.5-12.5 7-22 15.5-28.5 25.5 0-5.5.5-10.25 1.5-14.25 1.5-4.5 3.25-8.5 5.25-12 2.5-3.5 5.25-6.25 8.25-8.25 3-2.5 6.25-4.5 9.75-6v100.5h-99.75V705c7-5.5 17.75-12 32.25-19.5s33-14 55.5-19.5c22.5-6 48.5-9 78-9 26.5 0 50.5 2.75 72 8.25 22 5.5 40.5 13.75 55.5 24.75 15.5 10.5 27.25 24.25 35.25 41.25 8.5 16.5 12.75 36.25 12.75 59.25v216.75c0 5 1.25 9 3.75 12s6.25 5.25 11.25 6.75c5.5 1 11.5 1.75 18 2.25l5.25.75v27h-163.5Zm159.81-360v-27.75h1.5c12 0 22.25-1.25 30.75-3.75 9-2.5 16-6.5 21-12 5-6 8-14.25 9-24.75l24 36.75h186.75V696h-273Zm184.5 260.25c0 18 1.75 32 5.25 42 4 10 9.75 17 17.25 21s16.75 6 27.75 6c9.5 0 18.25-1.25 26.25-3.75 8.5-2.5 14-4.25 16.5-5.25v33c-4 2.5-10 4.75-18 6.75-7.5 2-16.5 3.75-27 5.25-10 1.5-21.5 2.25-34.5 2.25-29.5 0-55.75-4-78.75-12-22.5-8.5-40.25-22.25-53.25-41.25-12.5-19-18.75-44.25-18.75-75.75v-261l10.5-7.5 12.75-102.75h114v393Zm513.11 9c19.5 0 35-.75 46.5-2.25 12-2 20.75-5.75 26.25-11.25 6-5.5 9.75-13.5 11.25-24l9-52.5h30V1056h-369.75v-72c28.5-15.5 54.5-30.25 78-44.25 23.5-14.5 44.25-29.25 62.25-44.25 18.5-15 34-31 46.5-48 13-17 22.75-35.5 29.25-55.5s9.75-42.5 9.75-67.5c0-24.5-2.5-44-7.5-58.5-4.5-15-11.5-25.75-21-32.25s-21-9.75-34.5-9.75-25.25 2-35.25 6c-9.5 4-17.75 9.25-24.75 15.75s-13 13.5-18 21c0-3 .5-6.5 1.5-10.5 1.5-4.5 3.5-8.75 6-12.75s5-7.5 7.5-10.5c3-3.5 6.5-6.25 10.5-8.25v109.5h-99.75v-85.5c10-9 23.25-17.75 39.75-26.25 17-9 36.25-16.25 57.75-21.75 22-5.5 46-8.25 72-8.25 37.5 0 69.5 5.25 96 15.75s46.5 25.5 60 45c14 19.5 21 43.25 21 71.25 0 23.5-6.25 45.75-18.75 66.75-12 20.5-28.5 39.75-49.5 57.75s-44.75 35-71.25 51-54 30.75-82.5 44.25-56.5 26.25-84 38.25c-1-1.5-1-3.25 0-5.25s2.5-4.25 4.5-6.75c2.5-2.5 4-4.25 4.5-5.25h186.75Z"/><defs><linearGradient id="b" x1="800" x2="800" y1="300" y2="1300" gradientUnits="userSpaceOnUse"><stop stop-color="#60A5FA"/><stop offset="1" stop-color="#2563EB"/></linearGradient><clipPath id="a"><path fill="#fff" d="M200 200h1200v1200H200z"/></clipPath></defs></svg>